<svg width="800" height="800" viewBox="0 0 24 24" fill="none" xmlns="http://www.w3.org/2000/svg">
  <path d="M7 22C7.55228 22 8 21.5523 8 21C8 20.4477 7.55228 20 7 20C6.44772 20 6 20.4477 6 21C6 21.5523 6.44772 22 7 22Z" fill="#fff"/>
  <path d="M17 22C17.5523 22 18 21.5523 18 21C18 20.4477 17.5523 20 17 20C16.4477 20 16 20.4477 16 21C16 21.5523 16.4477 22 17 22Z" fill="#fff"/>
  <path d="M2 2H4.5L6.5 14.5C6.63261 15.3282 7.32843 16 8.16667 16H18.5C19.3284 16 20 15.3284 20 14.5C20 13.6716 19.3284 13 18.5 13H7.5" stroke="#fff" stroke-width="2" stroke-linecap="round" stroke-linejoin="round"/>
</svg> 